<?xml version="1.0" encoding="UTF-8"?>
<svg id="Capa_1" data-name="Capa 1" xmlns="http://www.w3.org/2000/svg" viewBox="0 0 214.71 75">
  <defs>
    <style>
      .cls-1 {
        fill: #fff;
        stroke-width: 0px;
      }
    </style>
  </defs>
  <path class="cls-1" d="M45.44,20.63c.13.22.37.36.63.36h2.85c.26,0,.5-.14.63-.36l1.42-2.47c.13-.22.13-.5,0-.72l-1.42-2.47c-.13-.22-.37-.36-.63-.36h-2.85c-.26,0-.5.14-.63.36l-1.42,2.47c-.13.22-.13.5,0,.72l1.42,2.47Z"/>
  <path class="cls-1" d="M80.4,20.63c.13.22.37.36.63.36h2.85c.26,0,.5-.14.63-.36l1.42-2.47c.13-.22.13-.5,0-.72l-1.42-2.47c-.13-.22-.37-.36-.63-.36h-2.85c-.26,0-.5.14-.63.36l-1.42,2.47c-.13.22-.13.5,0,.72l1.42,2.47Z"/>
  <path class="cls-1" d="M194.18,15.83l.66-6.31c.06-.57-.19-1.14-.66-1.48l-5.14-3.73c-.47-.34-1.08-.4-1.61-.17l-5.8,2.58c-.53.23-.89.73-.95,1.31l-.66,6.31c-.06.57.19,1.14.66,1.48l5.14,3.73c.47.34,1.08.4,1.61.17l5.8-2.58c.53-.23.89-.73.95-1.31Z"/>
  <path class="cls-1" d="M208.7,11.63l-4.3-3.13c-.39-.28-.9-.34-1.35-.14l-4.86,2.16c-.44.2-.75.61-.8,1.1l-.56,5.29c-.05.48.16.95.55,1.24l4.3,3.13c.39.28.9.34,1.35.14l4.86-2.16c.44-.2.75-.61.8-1.1l.56-5.29c.05-.48-.16-.95-.55-1.24Z"/>
  <path class="cls-1" d="M199.3,22.54l-4.08-2.97c-.37-.27-.86-.32-1.28-.13l-4.61,2.05c-.42.19-.71.58-.76,1.04l-.53,5.02c-.05.46.15.9.52,1.17l4.08,2.97c.37.27.86.32,1.28.13l4.61-2.05c.42-.19.71-.58.75-1.04l.53-5.02c.05-.46-.15-.9-.52-1.17Z"/>
  <path class="cls-1" d="M38.14,21.03c.56-.44,1.09-.8,1.59-1.1.5-.29,1-.51,1.47-.66.48-.14.97-.22,1.47-.22l.4-1.91h-10.03l-.4,1.91c.66,0,1.12.07,1.37.22.25.15.38.39.38.74,0,.24-.08.52-.24.86s-.44.72-.86,1.17c-.41.45-.98,1.01-1.69,1.67l-8.92,8,2.19-10.03c.16-.77.42-1.33.8-1.69.37-.36.82-.6,1.33-.72.52-.12,1.07-.18,1.65-.18h.52l.44-1.95h-12.94l-.4,1.95h.52c.85,0,1.54.09,2.07.26.53.17.8.56.8,1.17,0,.11-.02.27-.06.5-.04.23-.09.49-.14.78l-4.1,19.27c-.16.74-.42,1.29-.8,1.65-.37.36-.82.6-1.33.72-.52.12-1.05.18-1.61.18h-.52l-.4,1.95h12.9l.4-1.95h-.52c-.82,0-1.51-.09-2.07-.26-.56-.17-.84-.56-.84-1.18,0-.1.02-.26.06-.48.04-.21.07-.38.1-.52l1.43-6.77,3-2.11,3.29,8.44c.37.93.76,1.71,1.16,2.35.4.64.88,1.13,1.43,1.49s1.26.61,2.11.76c.85.15,1.91.22,3.19.22h1.51l.36-1.95h-.12c-.58,0-1.09-.13-1.51-.38-.42-.25-.82-.65-1.18-1.19-.36-.54-.72-1.25-1.09-2.13l-4.69-11.4,6.72-6c.64-.56,1.23-1.05,1.79-1.49Z"/>
  <path class="cls-1" d="M43.08,29.29l-1.55,7.41c-.13.58-.26,1.21-.38,1.87-.12.66-.21,1.29-.28,1.87-.07.58-.1,1.1-.1,1.55,0,1.19.36,2.16,1.09,2.89.73.73,1.77,1.09,3.13,1.09,1.27,0,2.41-.29,3.41-.86,1-.57,1.8-1.16,2.41-1.77l-.88-1.27c-.48.29-.91.53-1.29.7-.38.17-.8.26-1.25.26-.42,0-.76-.16-1-.48-.24-.32-.36-.78-.36-1.39,0-.37.03-.8.08-1.27.05-.48.13-.96.22-1.43.09-.48.18-.93.26-1.35l2.75-12.86h-8.52l-.4,1.95h.64c.77,0,1.33.1,1.69.3.36.2.54.66.54,1.37,0,.11-.02.3-.06.58-.04.28-.09.56-.14.86Z"/>
  <path class="cls-1" d="M72.71,42.79c-.37.16-.77.24-1.2.24s-.76-.15-1.02-.46-.38-.76-.38-1.37c0-.56.05-1.17.16-1.85.11-.68.24-1.37.4-2.09l.92-4.42c.13-.69.28-1.44.46-2.25.17-.81.26-1.55.26-2.21,0-.82-.14-1.57-.42-2.25-.28-.68-.74-1.23-1.37-1.65s-1.51-.64-2.63-.64c-1.67,0-3.09.41-4.26,1.24s-2.27,2.06-3.3,3.7h-.28l.68-4.54h-8.28l-.36,1.95h.56c.77,0,1.35.11,1.75.32.4.21.6.69.6,1.43,0,.11-.02.33-.06.68-.04.35-.1.69-.18,1.03l-3.34,15.93h5.1l2.07-9.6c.16-.77.46-1.67.9-2.71.44-1.03.97-2.04,1.59-3.01.62-.97,1.29-1.77,2.01-2.39.72-.62,1.43-.94,2.15-.94s1.22.25,1.43.76c.21.51.32,1.02.32,1.55,0,.43-.05.93-.14,1.51-.09.58-.2,1.15-.32,1.69-.12.54-.22.99-.3,1.33l-.68,3.15c-.21,1.09-.38,2.04-.5,2.87-.12.82-.18,1.53-.18,2.11,0,1.22.38,2.2,1.14,2.95s1.82,1.11,3.21,1.11c1.3,0,2.4-.27,3.31-.82.9-.54,1.67-1.12,2.31-1.73l-.88-1.31c-.45.29-.86.52-1.23.68Z"/>
  <path class="cls-1" d="M85.81,43.35l-.88-1.27c-.48.29-.91.53-1.29.7-.38.17-.8.26-1.25.26-.42,0-.76-.16-1-.48-.24-.32-.36-.78-.36-1.39,0-.37.03-.8.08-1.27.05-.48.13-.96.22-1.43.09-.48.18-.93.26-1.35l2.75-12.86h-8.52l-.4,1.95h.64c.77,0,1.33.1,1.69.3.36.2.54.66.54,1.37,0,.11-.02.3-.06.58-.04.28-.09.56-.14.86l-1.55,7.41c-.13.58-.26,1.21-.38,1.87-.12.66-.21,1.29-.28,1.87-.07.58-.1,1.1-.1,1.55,0,1.19.36,2.16,1.09,2.89.73.73,1.77,1.09,3.13,1.09,1.27,0,2.41-.29,3.41-.86,1-.57,1.8-1.16,2.41-1.77Z"/>
  <path class="cls-1" d="M97.16,43.35l-.88-1.27c-.48.29-.91.53-1.29.7-.38.17-.8.26-1.25.26-.42,0-.76-.16-1-.48-.24-.32-.36-.78-.36-1.39,0-.37.03-.8.1-1.27.07-.48.14-.96.22-1.43.08-.48.17-.93.28-1.35l4.7-21.78h-8.84l-.36,1.95h.68c.77,0,1.36.11,1.77.32.41.21.62.69.62,1.43,0,.11-.03.33-.08.68s-.12.69-.2,1.03l-3.39,15.97c-.13.58-.25,1.21-.36,1.87-.11.66-.19,1.29-.26,1.87-.07.58-.1,1.1-.1,1.55,0,1.19.36,2.16,1.09,2.89s1.76,1.09,3.09,1.09,2.44-.29,3.42-.86c.98-.57,1.78-1.16,2.39-1.77Z"/>
  <path class="cls-1" d="M133.27,45.58h1.51l.36-1.95h-.12c-.58,0-1.09-.13-1.51-.38-.42-.25-.82-.65-1.18-1.19-.36-.54-.72-1.25-1.09-2.13l-4.69-11.4,6.72-6c.64-.56,1.23-1.05,1.79-1.49s1.09-.8,1.59-1.1c.5-.29,1-.51,1.47-.66.48-.14.97-.22,1.47-.22l.4-1.91h-10.03l-.4,1.91c.66,0,1.12.07,1.37.22.25.15.38.39.38.74,0,.24-.08.52-.24.86s-.44.72-.86,1.17c-.41.45-.98,1.01-1.69,1.67l-8.92,8,2.19-10.03c.16-.77.42-1.33.8-1.69.37-.36.82-.6,1.33-.72.52-.12,1.07-.18,1.65-.18h.52l.44-1.95h-12.94l-.4,1.95h.52c.85,0,1.54.09,2.07.26.53.17.8.56.8,1.17,0,.11-.02.27-.06.5-.04.23-.09.49-.14.78l-4.1,19.27c-.16.74-.42,1.29-.8,1.65-.37.36-.82.6-1.33.72-.52.12-1.05.18-1.61.18h-.52l-.4,1.95h12.9l.4-1.95h-.52c-.82,0-1.51-.09-2.07-.26-.56-.17-.84-.56-.84-1.18,0-.1.02-.26.06-.48.04-.21.07-.38.1-.52l1.43-6.77,3-2.11,3.29,8.44c.37.93.76,1.71,1.16,2.35.4.64.88,1.13,1.43,1.49s1.26.61,2.11.76c.85.15,1.91.22,3.19.22Z"/>
  <path class="cls-1" d="M155.57,42.81c-.4.17-.8.26-1.19.26-.42,0-.76-.17-1-.5-.24-.33-.36-.83-.36-1.49,0-.34.03-.8.1-1.35.07-.56.16-1.11.28-1.65.12-.54.21-.96.26-1.25l2.67-12.54h-1.79l-1.99.96c-.37-.24-.84-.46-1.41-.68-.57-.21-1.19-.38-1.85-.52-.66-.13-1.33-.2-1.99-.2-1.57,0-3,.31-4.3.94-1.3.62-2.44,1.46-3.42,2.51-.98,1.05-1.81,2.22-2.49,3.5-.68,1.29-1.19,2.62-1.53,3.98-.35,1.37-.52,2.67-.52,3.92,0,1.38.2,2.62.6,3.72s1.01,1.97,1.83,2.61c.82.64,1.85.96,3.07.96s2.24-.24,3.13-.72c.89-.48,1.69-1.16,2.41-2.05.72-.89,1.39-1.97,2.03-3.25h.28c-.13.56-.23,1.04-.28,1.45-.05.41-.08.86-.08,1.33,0,1.04.33,1.83,1,2.39.66.56,1.54.84,2.63.84.85,0,1.65-.13,2.41-.38.76-.25,1.45-.56,2.07-.94.62-.37,1.14-.73,1.53-1.07l-.8-1.43c-.45.27-.88.48-1.27.66ZM149,34.11c-.21,1.09-.55,2.16-1.02,3.23-.47,1.06-.99,2.02-1.57,2.89-.58.86-1.21,1.55-1.87,2.05-.66.5-1.3.76-1.91.76-.66,0-1.21-.31-1.65-.94-.44-.62-.66-1.73-.66-3.33,0-.9.1-1.92.3-3.05s.5-2.26.9-3.39c.4-1.13.9-2.16,1.49-3.11.6-.94,1.29-1.7,2.07-2.27.78-.57,1.67-.86,2.65-.86.56,0,1.08.1,1.57.3.49.2.87.51,1.14.94l-1.43,6.77Z"/>
  <path class="cls-1" d="M174.49,23.83c-1.14,0-2.16.22-3.05.66-.89.44-1.69,1.08-2.39,1.93-.7.85-1.37,1.9-2.01,3.15h-.2c.08-.29.21-.7.38-1.23.17-.53.36-1.1.58-1.71.21-.61.4-1.21.56-1.79.16-.58.28-1.06.36-1.43l1.71-8.08h-8.8l-.4,1.95h.68c.77,0,1.36.11,1.77.32.41.21.62.69.62,1.43,0,.11-.03.34-.08.7-.05.36-.13.75-.24,1.17l-5.3,24.81h1.87l2.11-1.16c.48.37,1.15.7,2.01.99.86.29,1.82.44,2.89.44,1.57,0,3-.31,4.3-.92s2.46-1.43,3.46-2.47c1.01-1.03,1.86-2.2,2.57-3.5.7-1.3,1.23-2.64,1.59-4.02s.54-2.72.54-4.02c0-2.36-.51-4.15-1.53-5.38-1.02-1.22-2.36-1.83-4-1.83ZM174.43,34.11c-.2,1.09-.5,2.19-.9,3.3-.4,1.11-.89,2.15-1.47,3.11-.58.96-1.27,1.73-2.05,2.31-.78.58-1.67.88-2.65.88-.58,0-1.11-.11-1.59-.34s-.88-.52-1.19-.9l1.67-7.65c.08-.42.25-.97.52-1.63.27-.66.59-1.36.98-2.09.38-.73.82-1.43,1.31-2.09.49-.66,1.02-1.2,1.59-1.61s1.18-.62,1.81-.62,1.14.33,1.59,1c.45.66.68,1.81.68,3.43,0,.85-.1,1.82-.3,2.91Z"/>
  <g>
    <rect class="cls-1" x="56.2" y="53.3" width="2.7" height="2.41"/>
    <rect class="cls-1" x="140.37" y="53.3" width="2.7" height="2.41"/>
    <g>
      <path class="cls-1" d="M46.78,63.67h-.02c-.39-1.94-1.53-6.2-2.54-9.6h-4.19v13.01h2.56v-4.66c0-2.23-.05-4.91-.16-6.43h.09c.57,2.6,1.92,7.53,2.86,11.09h2.4c1.25-4.07,2.55-8.4,3.16-11.06h.09c-.06,1.47-.09,3.96-.09,6.18v4.88h2.71v-13.01h-4.03c-1.08,3.33-2.51,7.89-2.83,9.6Z"/>
      <rect class="cls-1" x="56.2" y="57.31" width="2.7" height="9.77"/>
      <path class="cls-1" d="M65.47,57.08c-3.14,0-4.71,2.19-4.71,5.25,0,2.56,1.4,4.97,4.61,4.97s4.13-1.96,4.48-3.16h-2.71c-.26.59-.58,1.04-1.7,1.04-1.35,0-1.96-1.19-1.96-2.41h6.44c.04-.28.04-.49.04-.82,0-2.44-1.14-4.86-4.49-4.86ZM63.54,61.11c.11-1.2.63-2.09,1.92-2.09s1.77.96,1.79,2.09h-3.71Z"/>
      <rect class="cls-1" x="71.8" y="53.3" width="2.7" height="13.77"/>
      <path class="cls-1" d="M90.46,53.3h-2.7v4.71c-.22-.44-.97-.93-2.38-.93-2.77,0-4.44,2.18-4.44,5.19s1.57,5.03,4.04,5.03c1.46,0,2.3-.48,2.77-1.25.02.22.07.73.12,1.02h2.6c-.02-.89-.02-1.8-.02-2.68v-11.09ZM85.79,65.13c-1.32,0-2.07-1.03-2.07-2.93s.72-2.95,2.13-2.95c1.77,0,2,1.26,2,2.93,0,1.4-.21,2.95-2.07,2.95Z"/>
      <path class="cls-1" d="M96.99,57.08c-3.14,0-4.71,2.19-4.71,5.25,0,2.56,1.4,4.97,4.61,4.97s4.13-1.96,4.48-3.16h-2.71c-.26.59-.58,1.04-1.7,1.04-1.35,0-1.96-1.19-1.96-2.41h6.44c.04-.28.04-.49.04-.82,0-2.44-1.14-4.86-4.49-4.86ZM95.06,61.11c.11-1.2.63-2.09,1.92-2.09s1.77.96,1.79,2.09h-3.71Z"/>
      <path class="cls-1" d="M115.82,60.44c0-2.32-1.42-3.35-4.04-3.36-2.97-.02-4.04,1.39-4.19,3.12h2.57c.12-.71.37-1.19,1.52-1.19,1.25,0,1.5.68,1.5,1.38v.6h-1.39c-2.86,0-4.65,1.03-4.65,3.25,0,1.51.99,3.06,3.35,3.06,1.73,0,2.39-.63,2.75-1.18,0,.25.06.76.14.95h2.58c-.06-.24-.13-1.59-.13-2.52v-4.11ZM113.18,62.88c0,1.29-.21,2.48-1.93,2.48-.97,0-1.41-.6-1.41-1.3,0-.94.6-1.44,2.23-1.44h1.1v.26Z"/>
      <path class="cls-1" d="M123.76,57.08c-1.58,0-2.39.64-2.79,1.26v-5.04h-2.7v10.58c0,1.06,0,2.13-.02,3.19h2.59c.05-.25.1-.6.1-.93.47.71,1.11,1.15,2.57,1.15,2.81,0,4.25-2.49,4.25-5.28s-1.33-4.93-3.98-4.93ZM122.9,65.15c-1.58,0-2.06-1.26-2.06-2.91,0-1.99.55-3,2.09-3,1.46,0,2.07,1.19,2.07,2.82,0,1.85-.72,3.08-2.1,3.08Z"/>
      <path class="cls-1" d="M133.85,57.08c-3.14,0-4.71,2.19-4.71,5.25,0,2.56,1.4,4.97,4.61,4.97s4.13-1.96,4.48-3.16h-2.71c-.26.59-.58,1.04-1.7,1.04-1.35,0-1.96-1.19-1.96-2.41h6.44c.04-.28.04-.49.04-.82,0-2.44-1.14-4.86-4.49-4.86ZM131.92,61.11c.11-1.2.63-2.09,1.92-2.09s1.77.96,1.79,2.09h-3.71Z"/>
      <path class="cls-1" d="M140.37,67.41c0,1.06-.25,1.39-1.12,1.39-.08,0-.17,0-.25,0v2.17c.23.02.59.04.83.04,2.69,0,3.25-1.34,3.25-4.13v-9.56h-2.7v10.11Z"/>
      <path class="cls-1" d="M153.52,60.44c0-2.32-1.42-3.35-4.04-3.36-2.97-.02-4.04,1.39-4.19,3.12h2.57c.12-.71.37-1.19,1.52-1.19,1.25,0,1.5.68,1.5,1.38v.6h-1.39c-2.86,0-4.65,1.03-4.65,3.25,0,1.51.99,3.06,3.35,3.06,1.73,0,2.39-.63,2.75-1.18,0,.25.06.76.14.95h2.58c-.06-.24-.13-1.59-.13-2.52v-4.11ZM150.89,62.88c0,1.29-.21,2.48-1.93,2.48-.97,0-1.41-.6-1.41-1.3,0-.94.6-1.44,2.23-1.44h1.1v.26Z"/>
    </g>
  </g>
</svg>