<?xml version="1.0" encoding="utf-8"?>
<!-- Generator: Adobe Illustrator 23.0.1, SVG Export Plug-In . SVG Version: 6.00 Build 0)  -->
<svg version="1.1" id="Layer_1" xmlns="http://www.w3.org/2000/svg" xmlns:xlink="http://www.w3.org/1999/xlink" x="0px" y="0px"
	 viewBox="0 0 1440 320" style="enable-background:new 0 0 1440 320;" xml:space="preserve">
<style type="text/css">
	.st0{fill:#EACB45;}
	.st1{stroke:#EACB45;stroke-miterlimit:10;}
</style>
<path class="st0" d="M0,256l13.3-37.3C26.7,181,53,107,80,85.3c26.7-21.3,53,10.7,80,21.4c26.7,10.3,53,0.3,80,32
	c26.7,32.3,53,106.3,80,106.6c26.7-0.3,53-74.3,80-101.3c26.7-27,53-5,80-10.7c26.7-5.3,53-37.3,80-42.6c26.7-5.7,53,16.3,80,53.3
	c26.7,37,53,91,80,112c26.7,21,53,11,80-5.3c26.7-15.7,53-37.7,80-64c26.7-26.7,53-58.7,80-53.4c26.7,5.7,53,47.7,80,53.4
	c26.7,5.3,53-26.7,80-21.4c26.7,5.7,53,47.7,80,32c26.7-16.3,53-90.3,80-85.3c16.65,3.08,37.93,45.22,80,133.3
	c5.39,11.29,17.16,36.2,37.29,38.83c8.54,1.12,16.05-2.11,20.97-4.93c6.63-3.8,11.07-7.97,13.14-10.18
	c4.23-4.51,6.93-8.97,8.6-12.22c0-85.6,0-171.2,0-256.8h-13.3c-13.4,0-39.7,0-66.7,0c-26.7,0-53,0-80,0c-26.7,0-53,0-80,0
	c-26.7,0-53,0-80,0c-26.7,0-53,0-80,0c-26.7,0-53,0-80,0c-26.7,0-53,0-80,0c-26.7,0-53,0-80,0c-26.7,0-53,0-80,0c-26.7,0-53,0-80,0
	c-26.7,0-53,0-80,0c-26.7,0-53,0-80,0c-26.7,0-53,0-80,0c-26.7,0-53,0-80,0c-26.7,0-53,0-80,0c-26.7,0-53,0-80,0c-26.7,0-53,0-80,0
	C53.3,0,27,0,13,0H0V256z"/>
<path class="st1" d="M1336.95,392.37"/>
<path class="st0" d="M1467.63,250.68"/>
</svg>
